<?xml version="1.0" standalone="no"?>
<!DOCTYPE svg PUBLIC "-//W3C//DTD SVG 20010904//EN"
 "http://www.w3.org/TR/2001/REC-SVG-20010904/DTD/svg10.dtd">
<svg version="1.0" xmlns="http://www.w3.org/2000/svg"
 width="400.000000pt" height="400.000000pt" viewBox="0 0 400.000000 400.000000"
 preserveAspectRatio="xMidYMid meet">
<metadata>
Created by potrace 1.14, written by Peter Selinger 2001-2017
</metadata>
<g transform="translate(0.000000,400.000000) scale(0.100000,-0.100000)"
fill="#000000" stroke="none">
<path d="M2118 3824 c-4 -3 -14 -7 -23 -8 -9 -1 -21 -9 -26 -17 -5 -8 -9 -10
-9 -5 0 6 -8 1 -18 -10 -10 -10 -33 -29 -49 -42 -17 -13 -37 -37 -43 -53 -7
-16 -16 -29 -21 -29 -13 0 -50 -42 -60 -68 -5 -13 -13 -20 -19 -17 -6 3 -7 -1
-4 -9 3 -9 1 -16 -5 -16 -6 0 -11 -6 -11 -14 0 -7 -11 -21 -24 -32 -14 -10
-23 -21 -20 -25 2 -4 -3 -9 -11 -12 -7 -3 -17 -22 -21 -42 -3 -20 -9 -33 -12
-30 -7 7 -43 -86 -37 -96 3 -4 -1 -9 -8 -12 -8 -3 -12 -18 -11 -36 1 -17 -2
-31 -6 -31 -4 0 -10 -9 -13 -20 -3 -12 -1 -18 5 -14 7 4 7 -2 2 -17 -13 -42
-10 -189 5 -198 11 -7 11 -10 0 -15 -11 -5 -11 -7 -1 -12 6 -3 12 -16 12 -29
0 -13 5 -27 10 -30 6 -3 10 -15 10 -26 0 -12 4 -17 11 -13 7 4 10 1 7 -7 -3
-8 7 -30 23 -50 15 -19 31 -47 34 -62 4 -15 13 -31 20 -35 7 -4 25 -34 40 -67
16 -33 34 -64 42 -68 8 -5 11 -17 7 -31 -3 -13 -1 -27 5 -30 6 -4 11 -24 11
-44 0 -21 9 -55 20 -77 11 -22 20 -47 20 -57 0 -9 4 -19 8 -22 5 -3 8 -19 7
-35 -1 -17 2 -28 7 -25 4 3 8 -3 9 -13 1 -26 5 -53 12 -93 4 -19 3 -49 -2 -67
-7 -22 -6 -33 2 -37 9 -3 9 -7 -1 -14 -7 -5 -10 -16 -7 -24 4 -9 1 -19 -5 -23
-9 -6 -9 -10 1 -16 8 -5 9 -9 3 -9 -6 0 -10 -15 -9 -35 2 -19 -1 -35 -5 -35
-4 0 -6 -20 -5 -45 1 -25 -2 -48 -5 -50 -4 -3 -10 -32 -14 -65 -4 -33 -11 -58
-15 -56 -5 3 -6 -10 -4 -29 2 -18 -1 -36 -7 -40 -6 -4 -8 -11 -5 -16 4 -5 1
-9 -5 -9 -6 0 -8 -4 -5 -10 3 -5 -1 -19 -9 -31 -8 -12 -12 -28 -9 -35 3 -8 0
-14 -6 -14 -18 0 -13 -18 7 -23 21 -4 72 19 72 34 0 6 5 7 11 3 6 -3 14 -2 18
4 3 6 13 12 21 14 15 3 29 17 73 71 12 15 31 37 42 49 11 13 20 27 21 33 4 32
18 56 31 51 8 -3 12 -2 9 3 -3 5 1 14 9 21 7 6 11 18 8 26 -3 8 0 14 7 14 6 0
9 4 6 8 -3 5 4 23 15 40 10 18 19 39 19 47 0 8 4 15 10 15 5 0 7 6 4 13 -3 8
2 20 10 27 9 7 13 16 10 22 -3 5 -1 15 6 23 8 9 8 15 0 20 -8 5 -8 11 0 20 7
8 8 20 4 26 -5 8 -3 9 6 4 10 -6 12 -4 6 11 -10 26 -10 24 -1 68 6 32 5 42 -9
52 -12 8 -13 13 -5 16 8 3 10 11 4 24 -4 10 -9 24 -10 29 -1 6 -3 12 -4 15 -4
7 -18 95 -24 149 -2 19 -11 39 -20 46 -10 7 -17 19 -17 27 0 8 -5 19 -12 26
-7 7 -8 12 -4 12 5 0 3 7 -4 15 -7 8 -9 15 -5 15 4 0 2 7 -5 15 -6 8 -9 18 -6
23 3 6 -1 15 -9 22 -7 6 -11 18 -8 25 2 8 -2 29 -11 46 -9 18 -16 38 -16 46 0
7 -5 13 -11 13 -5 0 -7 5 -4 10 3 6 1 10 -4 10 -6 0 -11 4 -11 10 0 16 -49
118 -61 125 -6 4 -8 13 -5 20 2 7 -2 16 -10 19 -8 3 -14 13 -14 21 0 10 5 13
13 9 6 -4 4 2 -6 13 -9 11 -14 23 -10 27 4 4 1 11 -6 16 -13 7 -19 42 -21 107
0 12 -4 24 -8 27 -10 6 -3 196 11 296 6 42 19 80 26 80 4 0 8 6 9 13 1 6 3 22
4 34 2 12 10 30 18 40 8 10 16 28 18 41 2 13 13 39 24 58 11 19 16 34 11 34
-4 0 0 5 9 11 9 5 15 15 12 23 -3 7 2 19 11 26 8 7 15 16 15 21 0 10 -23 12
-32 3z"/>
<path d="M3015 3639 c-4 -6 -5 -12 -2 -15 2 -3 7 2 10 11 7 17 1 20 -8 4z"/>
<path d="M1189 3624 c-6 -7 -17 -10 -25 -7 -9 3 -30 -9 -52 -30 -20 -20 -40
-36 -44 -37 -5 0 -7 -3 -5 -6 1 -3 -11 -12 -26 -20 -15 -8 -25 -19 -22 -25 4
-5 -2 -12 -12 -16 -10 -3 -27 -18 -38 -31 -11 -14 -29 -35 -40 -46 -39 -42
-60 -69 -47 -62 6 4 12 5 12 1 0 -3 -12 -10 -26 -15 -14 -6 -23 -14 -19 -19 3
-5 1 -12 -4 -16 -6 -3 -20 -27 -33 -53 -13 -26 -26 -49 -30 -52 -4 -3 -8 -17
-10 -30 -2 -14 -7 -31 -12 -38 -4 -7 -3 -18 2 -25 7 -8 6 -17 -2 -29 -11 -15
-12 -46 -2 -103 2 -11 4 -20 5 -20 1 0 4 -16 7 -35 2 -19 18 -57 34 -83 16
-26 25 -45 20 -42 -6 3 -7 -1 -4 -10 4 -9 9 -14 11 -11 9 8 35 -23 28 -33 -3
-6 6 -18 20 -27 20 -13 23 -19 13 -25 -10 -7 -9 -9 5 -9 14 0 23 -13 15 -22
-1 -2 10 -15 25 -31 16 -15 25 -32 21 -39 -5 -8 -1 -9 12 -4 10 4 15 4 11 0
-4 -4 -2 -13 4 -21 9 -10 8 -13 -2 -13 -10 -1 -9 -4 3 -11 13 -7 16 -17 11
-41 -4 -22 -3 -29 5 -24 8 5 12 -3 12 -22 0 -18 6 -32 16 -36 11 -4 14 -13 11
-28 -3 -11 1 -34 9 -50 8 -15 11 -28 7 -28 -5 0 -3 -4 2 -8 18 -12 33 -78 23
-96 -6 -10 -5 -16 2 -16 7 0 8 -6 0 -19 -7 -14 -7 -22 0 -26 7 -5 8 -11 1 -19
-5 -6 -12 -24 -15 -39 -2 -15 -7 -31 -10 -36 -4 -5 -2 -12 4 -16 7 -4 6 -13
-1 -27 -6 -11 -8 -30 -5 -42 3 -13 3 -26 -1 -30 -7 -6 -11 -20 -18 -61 -2 -11
-4 -22 -5 -25 -1 -3 -2 -13 -1 -22 1 -10 -3 -18 -10 -18 -7 0 -9 -10 -6 -26 3
-16 0 -28 -9 -31 -8 -3 -14 -13 -14 -22 0 -9 -8 -33 -19 -54 -10 -20 -15 -34
-10 -31 5 3 9 1 9 -4 0 -14 29 -10 34 5 3 7 12 13 19 13 23 0 78 31 72 41 -4
5 0 6 8 3 8 -3 18 0 22 5 3 6 12 8 18 5 7 -4 9 -4 5 0 -8 10 23 46 40 46 7 0
10 5 7 10 -4 6 7 24 24 40 46 47 75 90 59 90 -8 1 -5 7 7 16 11 8 19 20 17 25
-1 5 2 9 8 9 5 0 10 7 10 15 0 8 6 15 13 15 9 0 9 2 -1 9 -11 7 -11 9 2 14 9
4 16 18 16 32 0 14 4 25 8 25 27 0 44 148 22 190 -8 15 -8 20 -1 16 13 -9 15
6 2 19 -5 6 -11 28 -14 50 -10 68 -25 119 -40 130 -8 6 -18 25 -22 43 -3 18
-11 30 -16 26 -5 -3 -9 -2 -10 3 -3 43 -10 67 -19 73 -6 4 -12 17 -13 28 -1
12 -5 22 -10 22 -4 0 -6 4 -2 9 3 5 -1 16 -9 24 -8 8 -13 17 -10 20 6 5 -24
66 -37 77 -3 3 -12 20 -20 38 -8 17 -21 32 -29 32 -13 0 -13 1 0 11 11 8 12
12 3 16 -7 2 -20 21 -29 41 -9 20 -20 45 -25 55 -6 11 -5 17 2 17 9 0 9 4 0
14 -13 15 -18 87 -7 104 4 7 2 12 -4 12 -8 0 -9 10 -5 29 4 17 2 32 -5 36 -6
4 -7 12 -2 18 4 7 9 25 10 41 1 17 8 33 15 38 9 6 9 8 0 8 -9 0 -10 7 -2 26 5
15 7 29 4 32 -3 3 2 14 12 24 9 10 13 18 8 18 -4 0 -1 7 6 16 7 9 14 23 15 32
2 8 7 18 12 21 5 3 12 16 16 29 4 12 12 22 17 22 5 0 9 11 9 25 0 14 4 25 10
25 10 0 40 51 40 68 0 13 -29 10 -41 -4z"/>
<path d="M2943 3614 c-2 -7 -11 -10 -19 -7 -8 3 -14 0 -14 -6 0 -6 -7 -11 -15
-11 -8 0 -15 -4 -15 -10 0 -5 -6 -10 -14 -10 -8 0 -18 -9 -21 -20 -4 -11 -10
-18 -15 -15 -5 3 -14 -4 -20 -16 -7 -11 -14 -18 -17 -16 -5 5 -43 -29 -43 -38
0 -3 -11 -16 -24 -28 -30 -28 -90 -107 -99 -130 -4 -10 -11 -15 -17 -12 -6 3
-7 -1 -4 -9 3 -9 2 -16 -3 -16 -11 0 -34 -44 -40 -75 -2 -10 -9 -22 -15 -26
-6 -4 -8 -16 -6 -27 3 -12 1 -23 -6 -25 -25 -10 -1 -267 25 -267 4 0 9 -13 13
-30 3 -18 12 -30 21 -30 9 0 13 -4 10 -10 -3 -5 -3 -10 2 -10 4 0 14 -12 20
-27 7 -16 27 -43 44 -62 17 -19 32 -40 33 -46 1 -7 10 -25 20 -40 10 -15 19
-33 21 -39 1 -6 10 -28 19 -49 9 -21 21 -57 25 -80 13 -65 29 -99 43 -91 10 5
10 4 1 -6 -8 -9 -9 -19 -3 -30 5 -9 10 -38 12 -63 2 -30 8 -49 18 -53 13 -4
12 -7 -2 -15 -13 -7 -15 -15 -9 -32 5 -14 5 -30 -1 -40 -5 -9 -6 -22 -3 -27 3
-6 2 -10 -3 -10 -5 0 -9 -10 -9 -22 0 -13 -3 -52 -8 -88 -5 -36 -10 -70 -10
-77 0 -6 -3 -15 -7 -18 -4 -4 -4 -13 -2 -20 3 -7 1 -16 -5 -20 -6 -3 -11 -15
-11 -26 0 -11 -7 -27 -15 -35 -8 -8 -12 -21 -9 -28 3 -8 1 -17 -5 -20 -6 -4
-8 -13 -5 -20 3 -7 -2 -16 -10 -19 -9 -4 -16 -18 -16 -34 1 -27 1 -27 16 -8 8
11 23 19 34 17 10 -2 21 2 25 8 3 5 15 10 26 10 10 0 19 5 19 11 0 5 5 7 10 4
6 -3 13 1 16 9 3 9 15 16 27 16 11 0 18 3 14 6 -6 6 23 44 35 44 13 0 47 38
41 44 -4 3 -1 6 5 6 7 0 12 5 12 10 0 6 9 19 20 30 11 11 20 27 20 35 0 8 5
15 10 15 6 0 10 7 10 15 0 22 32 85 41 79 4 -2 6 5 4 16 -2 11 3 27 11 35 9 8
13 15 9 15 -4 0 0 7 9 15 8 9 13 22 10 30 -4 8 -2 15 3 15 4 0 8 32 8 70 0 52
-4 73 -15 80 -11 7 -11 10 -2 10 7 0 10 4 7 10 -8 13 -15 47 -19 85 -1 17 -8
40 -15 53 -6 12 -9 22 -5 22 3 0 1 6 -5 13 -6 8 -8 17 -4 21 4 4 -2 9 -14 12
-22 6 -39 44 -20 44 6 0 4 6 -5 13 -14 11 -33 62 -30 80 1 4 -2 7 -7 7 -9 0
-27 57 -23 73 2 5 -2 6 -8 2 -6 -4 -15 7 -21 24 -6 17 -15 31 -20 31 -5 0 -9
9 -9 20 0 11 -9 29 -20 40 -11 11 -18 20 -15 20 3 0 -1 10 -10 23 -8 13 -12
26 -9 29 3 4 -3 11 -14 17 -14 7 -18 17 -14 36 2 14 -2 33 -10 43 -8 9 -14 34
-13 55 0 20 -2 37 -5 37 -10 0 -6 105 4 112 8 5 7 11 -1 19 -8 8 -7 20 3 46 8
19 10 32 5 28 -6 -3 -11 -1 -11 4 0 6 4 11 9 11 8 0 23 68 18 81 -1 3 6 13 16
23 9 10 17 24 17 32 0 8 5 14 12 14 6 0 8 3 5 6 -4 4 2 19 13 34 11 16 20 33
20 38 0 20 35 72 48 72 11 0 11 2 0 13 -17 17 -48 18 -55 1z"/>
<path d="M574 2288 c-3 -4 -10 -6 -15 -2 -5 3 -21 -2 -36 -11 -14 -9 -23 -13
-20 -8 4 5 0 10 -8 10 -8 0 -12 -4 -9 -9 3 -4 0 -8 -5 -8 -6 0 -14 0 -18 -1
-15 -1 -78 -44 -99 -66 -12 -13 -24 -20 -28 -16 -4 4 -4 -1 0 -11 5 -13 4 -17
-4 -12 -6 3 -13 -3 -17 -14 -3 -11 -13 -20 -21 -20 -8 0 -13 -4 -10 -9 3 -5
-8 -23 -25 -40 -21 -22 -28 -38 -24 -51 5 -15 2 -20 -13 -20 -10 0 -19 -6 -20
-12 -3 -37 -25 -105 -39 -120 -13 -15 -13 -18 -2 -18 11 0 11 -2 -1 -10 -8 -5
-11 -10 -6 -10 5 0 3 -6 -3 -13 -6 -8 -8 -17 -4 -20 3 -4 2 -7 -4 -7 -10 0
-13 -16 -13 -68 0 -17 -3 -40 -8 -50 -5 -9 -6 -26 -2 -37 4 -11 4 -30 -1 -41
-4 -13 -3 -26 4 -34 9 -10 9 -11 -3 -5 -13 8 -13 6 -1 -8 7 -9 11 -23 8 -31
-3 -7 0 -19 6 -25 8 -8 8 -11 0 -11 -8 0 -10 -17 -6 -52 3 -29 5 -73 6 -98 0
-25 4 -50 9 -57 5 -7 11 -27 11 -45 2 -20 7 -32 15 -31 10 3 17 -16 13 -39 0
-5 4 -8 10 -8 5 0 8 -4 4 -9 -3 -6 8 -23 24 -40 16 -16 32 -39 36 -50 3 -12
12 -21 19 -21 7 0 19 -11 26 -25 7 -13 20 -27 29 -30 9 -2 22 -19 30 -37 17
-41 67 -92 81 -83 6 3 7 0 4 -9 -4 -12 0 -16 15 -16 12 0 24 -7 27 -15 4 -8
10 -12 15 -9 5 3 9 -1 9 -9 0 -8 7 -18 16 -21 8 -3 12 -10 9 -16 -3 -5 1 -11
9 -11 28 -2 30 -4 63 -27 18 -13 33 -20 33 -16 0 4 12 -3 27 -17 14 -13 23
-18 19 -12 -5 9 -2 11 8 7 9 -3 16 -12 16 -19 0 -7 16 -16 36 -19 19 -4 38
-14 41 -22 4 -12 8 -12 21 -2 13 11 15 10 9 -5 -4 -10 -3 -16 2 -13 10 7 71
-16 71 -26 0 -4 9 -8 20 -8 25 0 71 -21 65 -30 -3 -4 10 -7 28 -7 18 1 39 -3
47 -8 17 -10 33 -14 75 -18 17 -1 33 -6 38 -12 4 -6 10 -5 16 4 6 8 10 9 12 2
4 -10 42 -17 139 -26 19 -2 62 -6 95 -9 145 -15 146 -15 138 -3 -5 9 -3 9 8 0
8 -6 40 -11 72 -10 31 1 57 -1 57 -5 0 -3 14 -3 30 2 17 5 30 6 30 2 0 -4 34
-7 75 -7 41 -1 75 2 75 5 0 3 25 3 55 0 30 -3 55 -4 55 -1 0 4 28 5 62 4 35 0
69 4 76 9 8 7 12 7 12 -2 0 -8 4 -9 13 -3 6 6 26 9 42 8 17 0 40 2 52 6 12 5
48 11 80 14 98 9 228 29 228 35 0 1 18 3 40 6 22 2 47 6 55 8 8 1 33 6 55 11
22 4 49 14 61 22 11 7 23 10 26 7 7 -6 79 17 144 47 25 11 49 17 54 14 5 -3
13 2 18 10 5 9 15 17 23 19 8 1 24 8 37 14 12 7 22 10 22 7 0 -3 9 2 19 12 11
10 40 24 65 32 25 7 43 17 40 22 -3 5 2 9 11 9 9 0 32 9 53 19 20 10 40 18 44
17 4 0 15 9 24 22 9 13 21 21 26 20 6 -2 21 5 34 16 39 36 58 51 62 48 2 -2
17 15 33 38 16 22 36 43 44 47 8 3 12 9 9 14 -3 5 -2 9 3 8 23 -4 35 2 29 16
-3 9 0 15 9 15 8 0 15 5 15 10 0 6 18 30 40 53 23 23 51 53 63 67 30 33 83
142 79 163 -1 4 4 22 12 40 7 18 12 46 10 62 -2 16 2 33 8 36 14 9 22 115 15
184 -2 17 -5 40 -5 53 -1 15 -6 21 -14 16 -7 -4 -8 -3 -4 5 4 6 2 28 -5 49 -7
20 -13 39 -14 42 0 3 -4 11 -8 18 -5 6 -5 17 -2 22 3 6 2 10 -3 10 -5 0 -9 6
-10 13 -6 48 -10 59 -20 66 -6 3 -13 19 -16 35 -3 16 -9 32 -14 35 -5 3 -12
16 -16 29 -5 13 -12 20 -19 16 -7 -4 -9 -3 -4 1 4 5 0 19 -8 32 -9 13 -13 27
-11 32 3 5 -6 17 -19 27 -14 10 -25 29 -25 42 0 17 -7 24 -30 28 -16 4 -27 11
-24 16 3 5 -3 12 -15 15 -12 3 -21 10 -21 15 0 5 -4 6 -10 3 -6 -3 -10 -1 -10
5 0 7 -6 10 -14 7 -7 -3 -19 0 -25 6 -8 8 -11 7 -11 -5 0 -9 5 -20 10 -23 5
-3 10 -15 10 -26 0 -11 4 -17 10 -14 6 3 10 -3 10 -14 0 -11 5 -23 10 -26 6
-3 10 -17 10 -30 0 -13 6 -26 13 -28 9 -4 9 -6 -1 -6 -9 -1 -8 -7 4 -26 8 -13
13 -29 9 -35 -3 -5 -2 -10 3 -10 6 0 10 -10 10 -22 1 -106 8 -218 15 -218 5 0
5 -5 1 -12 -4 -6 -9 -41 -12 -76 -2 -38 -10 -71 -18 -80 -8 -7 -12 -17 -9 -22
3 -5 1 -11 -5 -15 -6 -4 -7 -11 -4 -17 4 -6 2 -13 -4 -17 -5 -3 -12 -19 -13
-36 -2 -16 -8 -33 -14 -37 -6 -5 -5 -8 3 -8 6 0 12 -5 12 -11 0 -5 -4 -7 -10
-4 -5 3 -10 -3 -10 -14 0 -11 -5 -23 -10 -26 -6 -4 -20 -25 -31 -48 -25 -49
-40 -65 -55 -60 -6 2 -14 -6 -17 -19 -4 -12 -9 -19 -13 -16 -3 4 -17 -5 -30
-19 -13 -14 -27 -23 -30 -20 -4 3 -13 -1 -21 -9 -8 -8 -19 -12 -24 -8 -5 3 -8
0 -7 -7 2 -7 -1 -13 -7 -14 -18 -2 -80 -38 -88 -51 -4 -8 -17 -14 -27 -14 -10
0 -23 -6 -27 -13 -10 -16 -83 -61 -83 -51 0 4 -8 0 -17 -9 -18 -15 -21 -17
-45 -17 -9 0 -8 -4 2 -10 13 -9 13 -10 0 -11 -8 -1 -18 -1 -22 0 -5 0 -8 -3
-8 -9 0 -5 -9 -10 -20 -10 -11 0 -20 -5 -20 -11 0 -6 -6 -9 -14 -6 -8 3 -25
-2 -38 -12 -13 -10 -36 -21 -53 -25 -44 -9 -49 -11 -60 -17 -5 -4 -21 -5 -35
-4 -14 1 -27 -1 -30 -6 -6 -8 -47 -16 -135 -24 -51 -4 -68 -8 -95 -18 -22 -8
-50 -5 -50 6 0 6 -5 6 -12 0 -7 -6 -32 -9 -56 -8 -24 0 -47 -4 -53 -12 -8 -9
-16 -10 -31 -2 -14 8 -24 7 -36 -3 -11 -9 -14 -10 -8 0 4 6 2 12 -3 12 -6 0
-11 -5 -11 -11 0 -8 -4 -9 -13 0 -8 6 -16 8 -19 6 -3 -3 -24 -2 -47 4 -22 5
-41 6 -41 2 0 -3 -20 -5 -44 -3 -24 2 -53 -1 -64 -7 -15 -8 -23 -7 -32 4 -7 8
-17 12 -22 9 -13 -8 -68 -12 -68 -5 0 3 -42 7 -93 7 -50 1 -126 5 -167 8 -41
4 -85 7 -97 7 -12 0 -25 4 -28 10 -5 7 -11 6 -21 -2 -10 -8 -18 -8 -27 0 -10
8 -17 7 -26 -2 -8 -8 -14 -8 -19 -2 -4 6 -27 11 -52 12 -71 1 -111 7 -116 15
-3 4 -11 5 -19 2 -14 -6 -99 21 -121 38 -6 4 -14 5 -17 1 -4 -3 -16 2 -27 12
-11 10 -28 19 -38 20 -30 4 -82 27 -82 36 0 5 -7 9 -15 9 -8 0 -23 9 -32 19
-9 11 -20 18 -25 15 -4 -3 -8 -1 -8 4 0 6 -10 8 -22 5 -19 -4 -20 -3 -8 6 11
8 11 11 2 11 -13 0 -32 13 -59 42 -9 9 -21 14 -27 12 -6 -2 -19 9 -28 26 -9
16 -24 30 -33 30 -8 0 -15 9 -15 20 0 13 -7 20 -20 20 -18 0 -25 10 -21 33 0
4 -6 7 -14 7 -8 0 -15 5 -15 10 0 6 -7 10 -15 10 -8 0 -12 6 -9 14 3 8 0 17
-5 21 -6 3 -9 11 -5 16 3 5 2 9 -3 8 -25 -4 -35 3 -30 21 3 11 0 18 -6 17 -6
-1 -13 7 -15 18 -2 11 -9 23 -14 26 -5 3 -10 17 -12 30 -1 13 -7 40 -13 59
-22 67 -35 208 -21 216 3 2 5 15 2 29 -2 13 1 27 7 31 8 4 7 9 -2 15 -11 6
-11 11 -1 21 6 6 12 22 12 34 0 11 15 50 33 86 17 35 33 71 35 79 2 7 10 20
19 27 9 6 14 12 10 12 -4 0 4 17 18 37 14 21 25 46 25 55 0 10 7 18 16 18 8 0
12 5 9 10 -3 6 -1 10 5 10 6 0 8 5 5 10 -3 6 0 13 9 16 8 3 16 11 19 17 5 14
-51 19 -59 5z"/>
</g>
</svg>
